<svg width="360" height="220" viewBox="0 0 360 220" fill="none" xmlns="http://www.w3.org/2000/svg">
  <rect x="16" y="28" width="228" height="150" rx="14" fill="#F0F9FF" stroke="#A5D8F3" stroke-width="3"/>
  <rect x="34" y="46" width="192" height="114" rx="10" fill="#FFFFFF"/>
  <rect x="34" y="46" width="192" height="24" rx="10" fill="#DDF2FD"/>
  <circle cx="50" cy="58" r="4" fill="#38BDF8"/>
  <circle cx="64" cy="58" r="4" fill="#22C55E"/>
  <circle cx="78" cy="58" r="4" fill="#F59E0B"/>
  <rect x="48" y="84" width="72" height="56" rx="8" fill="#ECFEFF" stroke="#67E8F9" stroke-width="2"/>
  <rect x="130" y="84" width="78" height="12" rx="6" fill="#E2E8F0"/>
  <rect x="130" y="104" width="62" height="12" rx="6" fill="#E2E8F0"/>
  <rect x="130" y="124" width="48" height="12" rx="6" fill="#E2E8F0"/>
  <path d="M72 98L58 112L72 126" stroke="#0E7490" stroke-width="5" stroke-linecap="round" stroke-linejoin="round"/>
  <path d="M96 98L110 112L96 126" stroke="#0E7490" stroke-width="5" stroke-linecap="round" stroke-linejoin="round"/>
  <circle cx="292" cy="96" r="44" fill="#EEF2FF" stroke="#C7D2FE" stroke-width="3"/>
  <path d="M292 70V88" stroke="#4F46E5" stroke-width="6" stroke-linecap="round"/>
  <rect x="276" y="86" width="32" height="32" rx="6" fill="#C7D2FE" stroke="#6366F1" stroke-width="3"/>
  <rect x="288" y="98" width="8" height="12" rx="4" fill="#4338CA"/>
  <circle cx="320" cy="134" r="14" fill="#10B981"/>
  <path d="M314 134L319 139L327 130" stroke="#FFFFFF" stroke-width="4" stroke-linecap="round" stroke-linejoin="round"/>
</svg>
