<svg width="360" height="220" viewBox="0 0 360 220" fill="none" xmlns="http://www.w3.org/2000/svg">
  <rect x="22" y="24" width="214" height="136" rx="12" fill="#EAF7FA" stroke="#A9DDE6" stroke-width="3"/>
  <rect x="38" y="40" width="182" height="96" rx="8" fill="#FFFFFF"/>
  <path d="M62 116L128 72L194 116" stroke="#28A9BB" stroke-width="7" stroke-linecap="round" stroke-linejoin="round"/>
  <rect x="62" y="72" width="132" height="52" rx="8" fill="#C9EFF4"/>
  <circle cx="205" cy="124" r="15" fill="#F97316"/>
  <rect x="202" y="116" width="6" height="12" rx="3" fill="#FFFFFF"/>
  <circle cx="205" cy="132" r="2.6" fill="#FFFFFF"/>
  <path d="M138 6V31" stroke="#0F3C4A" stroke-width="4"/>
  <path d="M138 31C127 31 120 39 120 49C120 61 130 69 138 69C146 69 156 61 156 49C156 39 149 31 138 31Z" stroke="#0F3C4A" stroke-width="4"/>
  <rect x="246" y="86" width="88" height="118" rx="14" fill="#EAF7FA" stroke="#A9DDE6" stroke-width="3"/>
  <rect x="260" y="100" width="60" height="76" rx="8" fill="#FFFFFF"/>
  <rect x="268" y="110" width="44" height="8" rx="4" fill="#B6E7EF"/>
  <rect x="268" y="124" width="30" height="8" rx="4" fill="#B6E7EF"/>
  <circle cx="319" cy="173" r="14" fill="#EF4444"/>
  <rect x="316" y="165" width="6" height="11" rx="3" fill="#FFFFFF"/>
  <circle cx="319" cy="181" r="2.5" fill="#FFFFFF"/>
</svg>
