<svg width="360" height="220" viewBox="0 0 360 220" fill="none" xmlns="http://www.w3.org/2000/svg">
  <rect x="20" y="28" width="220" height="132" rx="14" fill="#EAF5FF" stroke="#9BC7EF" stroke-width="3"/>
  <rect x="36" y="44" width="188" height="100" rx="10" fill="#FFFFFF"/>
  <rect x="54" y="62" width="152" height="14" rx="7" fill="#D7EAFE"/>
  <rect x="54" y="84" width="102" height="12" rx="6" fill="#D7EAFE"/>
  <rect x="54" y="102" width="120" height="12" rx="6" fill="#D7EAFE"/>
  <path d="M130 158V178H176V158" stroke="#1D4ED8" stroke-width="6" stroke-linecap="round"/>
  <rect x="108" y="176" width="90" height="10" rx="5" fill="#1D4ED8"/>
  <path d="M280 44L324 61V98C324 123 306 145 280 155C254 145 236 123 236 98V61L280 44Z" fill="#DCFCE7" stroke="#16A34A" stroke-width="3"/>
  <path d="M266 98L276 108L296 86" stroke="#16A34A" stroke-width="6" stroke-linecap="round" stroke-linejoin="round"/>
  <rect x="250" y="162" width="86" height="36" rx="10" fill="#ECFDF5" stroke="#A7F3D0" stroke-width="2"/>
  <text x="293" y="185" text-anchor="middle" fill="#166534" font-family="Arial, sans-serif" font-size="16" font-weight="700">TLS</text>
</svg>
